<svg version="1.2" baseProfile="tiny-ps" xmlns="http://www.w3.org/2000/svg" viewBox="0 0 769 559" width="769" height="559">
	<title>Presentación2 - copia-svg</title>
	<defs>
		<clipPath clipPathUnits="userSpaceOnUse" id="cp1">
			<path d="m-324-71h1280v720h-1280v-720z" />
		</clipPath>
	</defs>
	<style>
		tspan { white-space:pre }
		.s0 { fill: #2e4c6d } 
		.s1 { fill: #fc997c } 
	</style>
	<g id="Clip-Path" clip-path="url(#cp1)">
		<g id="Layer">
			<path id="automatización" fill="#ffffff" aria-label="automatización"  d="m99.11 466.81h-7.86q-9.58 0-13.28 2.19q-3.7 2.19-3.7 7.48q0 4.21 2.75 6.7q2.79 2.45 7.56 2.45q6.57 0 10.53-4.64q4-4.68 4-12.42v-1.76zm7.91-3.27v27.46h-7.91v-7.3q-2.71 4.38-6.75 6.49q-4.04 2.06-9.88 2.06q-7.39 0-11.77-4.13q-4.34-4.17-4.34-11.13q0-8.12 5.41-12.25q5.46-4.13 16.24-4.13h11.09v-0.77q0-5.46-3.61-8.42q-3.57-3.01-10.05-3.01q-4.13 0-8.04 0.99q-3.91 0.99-7.52 2.96v-7.3q4.34-1.68 8.42-2.49q4.08-0.86 7.95-0.86q10.44 0 15.6 5.41q5.16 5.41 5.16 16.41zm15.47 8.46v-29.13h7.91v28.83q0 6.83 2.66 10.27q2.66 3.39 7.99 3.39q6.4 0 10.1-4.08q3.74-4.08 3.74-11.13v-27.29h7.91v48.13h-7.91v-7.39q-2.88 4.38-6.7 6.53q-3.78 2.11-8.81 2.11q-8.29 0-12.59-5.16q-4.3-5.16-4.3-15.08zm19.89-30.29v0zm36.57-12.5h7.95v13.66h16.29v6.14h-16.29v26.13q0 5.89 1.59 7.56q1.63 1.68 6.57 1.68h8.12v6.62h-8.12q-9.15 0-12.63-3.39q-3.48-3.44-3.48-12.46v-26.13h-5.8v-6.14h5.8v-13.66zm53.28 19.21q-6.36 0-10.05 4.98q-3.7 4.94-3.7 13.58q0 8.64 3.65 13.62q3.7 4.94 10.1 4.94q6.32 0 10.01-4.98q3.7-4.98 3.7-13.58q0-8.55-3.7-13.54q-3.7-5.03-10.01-5.03zm0-6.7q10.31 0 16.2 6.7q5.89 6.7 5.89 18.56q0 11.82-5.89 18.56q-5.89 6.7-16.2 6.7q-10.36 0-16.24-6.7q-5.84-6.75-5.84-18.56q0-11.86 5.84-18.56q5.89-6.7 16.24-6.7zm72.66 10.4q2.96-5.33 7.09-7.86q4.13-2.54 9.71-2.54q7.52 0 11.6 5.29q4.08 5.24 4.08 14.95v29.05h-7.95v-28.79q0-6.92-2.45-10.27q-2.45-3.35-7.48-3.35q-6.14 0-9.71 4.08q-3.57 4.08-3.57 11.13v27.2h-7.95v-28.79q0-6.96-2.45-10.27q-2.45-3.35-7.56-3.35q-6.06 0-9.63 4.13q-3.57 4.08-3.57 11.09v27.2h-7.95v-48.13h7.95v7.48q2.71-4.43 6.49-6.53q3.78-2.11 8.98-2.11q5.24 0 8.89 2.66q3.7 2.66 5.46 7.73zm77.99 14.7h-7.86q-9.58 0-13.28 2.19q-3.7 2.19-3.7 7.48q0 4.21 2.75 6.7q2.79 2.45 7.56 2.45q6.57 0 10.53-4.64q4-4.68 4-12.42v-1.76zm7.91-3.27v27.46h-7.91v-7.3q-2.71 4.38-6.75 6.49q-4.04 2.06-9.88 2.06q-7.39 0-11.77-4.13q-4.34-4.17-4.34-11.13q0-8.12 5.41-12.25q5.46-4.13 16.24-4.13h11.09v-0.77q0-5.46-3.61-8.42q-3.57-3.01-10.05-3.01q-4.13 0-8.04 0.99q-3.91 0.99-7.52 2.96v-7.3q4.34-1.68 8.42-2.49q4.08-0.86 7.95-0.86q10.44 0 15.6 5.41q5.16 5.41 5.16 16.41zm16.16-34.33h7.95v13.66h16.29v6.14h-16.29v26.13q0 5.89 1.59 7.56q1.63 1.68 6.57 1.68h8.12v6.62h-8.12q-9.15 0-12.63-3.39q-3.48-3.44-3.48-12.46v-26.13h-5.8v-6.14h5.8v-13.66zm34.63 61.79v-48.13h7.91v48.13h-7.91zm0-56.85v-10.01h7.91v10.01h-7.91zm21.01 15.04v-6.32h37.55v7.22l-29.73 34.59h29.73v6.32h-38.63v-7.22l29.73-34.59h-28.66zm79.36 17.62h-7.86q-9.58 0-13.28 2.19q-3.7 2.19-3.7 7.48q0 4.21 2.75 6.7q2.79 2.45 7.56 2.45q6.57 0 10.53-4.64q4-4.68 4-12.42v-1.76zm7.91-3.27v27.46h-7.91v-7.3q-2.71 4.38-6.75 6.49q-4.04 2.06-9.88 2.06q-7.39 0-11.77-4.13q-4.34-4.17-4.34-11.13q0-8.12 5.41-12.25q5.46-4.13 16.24-4.13h11.09v-0.77q0-5.46-3.61-8.42q-3.57-3.01-10.05-3.01q-4.13 0-8.04 0.99q-3.91 0.99-7.52 2.96v-7.3q4.34-1.68 8.42-2.49q4.08-0.86 7.95-0.86q10.44 0 15.6 5.41q5.16 5.41 5.16 16.41zm50.92-18.82v7.39q-3.35-1.85-6.75-2.75q-3.35-0.95-6.79-0.95q-7.69 0-11.95 4.9q-4.25 4.86-4.25 13.66q0 8.81 4.25 13.71q4.25 4.86 11.95 4.86q3.44 0 6.79-0.9q3.39-0.95 6.75-2.79v7.3q-3.31 1.55-6.88 2.32q-3.52 0.77-7.52 0.77q-10.87 0-17.27-6.83q-6.4-6.83-6.4-18.43q0-11.77 6.45-18.52q6.49-6.75 17.75-6.75q3.65 0 7.13 0.77q3.48 0.73 6.75 2.23zm13.75 46.28v-48.13h7.91v48.13h-7.91zm0-56.85v-10.01h7.91v10.01h-7.91zm43.1 14.27q-6.36 0-10.05 4.98q-3.7 4.94-3.7 13.58q0 8.64 3.65 13.62q3.7 4.94 10.1 4.94q6.32 0 10.01-4.98q3.7-4.98 3.7-13.58q0-8.55-3.7-13.54q-3.7-5.03-10.01-5.03zm0-6.7q10.31 0 16.2 6.7q5.89 6.7 5.89 18.56q0 11.82-5.89 18.56q-5.89 6.7-16.2 6.7q-10.36 0-16.24-6.7q-5.84-6.75-5.84-18.56q0-11.86 5.84-18.56q5.89-6.7 16.24-6.7zm-6.06-4.94l12.03-16.16h8.55l-14.01 16.16h-6.57zm81.25 25.18v29.05h-7.91v-28.79q0-6.83-2.66-10.23q-2.66-3.39-7.99-3.39q-6.4 0-10.1 4.08q-3.7 4.08-3.7 11.13v27.2h-7.95v-48.13h7.95v7.48q2.84-4.34 6.66-6.49q3.87-2.15 8.89-2.15q8.29 0 12.55 5.16q4.25 5.11 4.25 15.08z" />
			<path id="Layer" class="s0" d="m93 35h226v227h-226v-227z" />
			<path id="M" fill="#ffffff" aria-label="M"  d="m152.2 206v-111.54h22.49l28.46 75.9l28.61-75.9h22.49v111.54h-14.72v-97.94l-28.76 76.5h-15.17l-28.76-76.5v97.94h-14.64z" />
			<path id="Layer" class="s1" d="m380 149h227v226h-227v-226z" />
			<path id="M" fill="#ffffff" aria-label="M"  d="m440.05 319v-111.54h22.49l28.46 75.9l28.61-75.9h22.49v111.54h-14.72v-97.94l-28.76 76.5h-15.17l-28.76-76.5v97.94h-14.64z" />
		</g>
	</g>
</svg>